<?xml version="1.0" standalone="no"?><!DOCTYPE svg PUBLIC "-//W3C//DTD SVG 1.1//EN" "http://www.w3.org/Graphics/SVG/1.1/DTD/svg11.dtd"><svg height="1024" node-id="1" sillyvg="true" template-height="1024" template-width="1024" version="1.1" viewBox="0 0 1024 1024" width="1024" xmlns="http://www.w3.org/2000/svg" xmlns:xlink="http://www.w3.org/1999/xlink"><defs node-id="28"></defs><path d="M 0.00 0.00 L 1024.00 0.00 L 1024.00 1024.00 L 0.00 1024.00 Z" fill="#ffffff" fill-rule="nonzero" node-id="30" stroke="none" target-height="1024" target-width="1024" target-x="0" target-y="0"></path><path d="M 567.13 506.38 C 577.26 502.69 587.56 499.61 597.98 496.86 C 600.08 514.59 600.45 533.05 593.59 549.92 C 592.57 552.01 590.56 556.24 589.57 558.37 C 572.38 583.94 541.07 600.80 509.92 595.80 C 478.65 589.52 452.52 563.26 445.09 532.48 C 452.02 531.54 458.96 530.55 465.94 529.61 L 468.11 527.97 C 479.72 525.91 491.09 522.88 502.70 520.91 L 504.92 519.27 C 512.18 518.53 519.40 517.75 526.67 517.05 C 531.55 530.39 543.61 537.86 557.73 535.27 C 566.22 527.92 566.47 516.72 567.13 506.38 Z" fill="#fefefe" fill-rule="nonzero" node-id="32" stroke="none" target-height="103.94" target-width="155.35703" target-x="445.08896" target-y="496.862"></path><path d="M 334.17 552.10 C 349.19 549.92 364.13 547.21 379.19 545.57 C 388.21 543.64 397.37 542.45 406.48 541.34 C 406.72 558.46 402.99 575.20 396.91 591.16 C 386.86 609.71 371.43 625.38 351.32 632.77 C 332.00 635.15 311.03 635.68 294.12 624.36 C 278.41 616.03 268.52 600.76 259.78 585.87 C 257.31 578.73 254.93 571.59 252.64 564.40 C 260.39 563.34 268.11 562.15 275.78 560.51 C 278.37 560.22 280.99 559.93 283.58 559.64 C 288.25 572.53 296.30 583.69 307.25 591.94 C 311.48 592.02 315.75 592.10 319.97 592.23 C 326.42 586.11 331.71 578.97 335.32 570.85 C 334.91 564.57 334.54 558.33 334.17 552.10 Z" fill="#fdfefe" fill-rule="nonzero" node-id="34" stroke="none" target-height="94.33899" target-width="154.085" target-x="252.636" target-y="541.343"></path><path d="M 575.62 446.47 C 584.07 438.22 595.36 435.60 606.85 436.46 C 606.97 441.59 607.09 446.68 607.13 451.81 C 596.38 452.09 584.11 455.29 575.62 446.47 Z" fill="#040403" fill-rule="nonzero" node-id="36" stroke="none" target-height="19.697021" target-width="31.515015" target-x="575.62" target-y="435.597"></path><path d="M 387.39 234.00 C 395.77 201.33 416.57 170.97 448.25 157.30 C 468.64 154.55 486.08 171.05 490.97 189.76 C 493.18 198.71 494.70 207.86 496.26 216.97 C 507.87 200.31 523.96 187.50 542.01 178.35 C 550.30 175.64 558.63 172.94 566.92 170.27 C 588.50 168.63 612.88 172.40 627.57 189.88 C 645.87 209.46 647.76 237.40 650.84 262.60 C 666.23 265.67 681.04 270.84 695.48 276.96 C 719.86 288.28 737.09 309.95 760.03 323.04 C 794.54 333.75 825.32 356.28 843.45 387.83 C 859.74 414.46 867.34 445.00 876.16 474.62 C 881.45 501.38 886.17 528.50 884.94 555.87 C 902.71 555.25 920.48 555.79 938.24 555.87 C 942.80 558.41 947.52 560.84 951.50 564.28 C 952.93 574.13 951.05 583.98 948.91 593.54 C 946.04 603.18 943.29 612.91 940.21 622.51 C 939.60 624.85 938.37 629.57 937.75 631.91 C 916.33 700.68 894.50 769.37 871.56 837.65 C 792.57 849.02 712.35 850.05 632.95 858.09 C 608.28 858.46 584.03 863.63 559.37 863.30 C 504.55 864.16 449.60 862.69 394.86 865.93 C 373.12 866.87 351.41 861.99 329.74 865.64 C 278.90 862.32 227.73 864.62 176.85 861.17 C 157.85 858.99 138.68 859.24 119.64 857.93 C 107.66 855.01 93.63 852.39 87.35 840.28 C 80.29 824.93 84.03 805.69 97.69 795.23 C 85.50 781.44 78.40 764.33 74.05 746.68 C 69.99 705.03 71.55 662.73 82.38 622.18 C 89.44 598.75 98.14 575.81 109.06 553.90 C 142.21 483.98 194.04 425.71 245.78 369.12 C 225.55 334.16 217.51 290.83 233.80 252.71 C 247.38 222.46 279.27 199.69 313.12 202.77 C 341.76 205.56 364.83 226.40 378.82 250.41 C 380.13 251.02 382.76 252.25 384.07 252.87 C 384.73 247.41 385.38 242.00 386.00 236.62 L 387.39 234.00 Z M 445.62 175.07 C 455.35 205.52 453.34 239.04 441.89 268.67 C 438.93 268.87 432.98 269.24 429.99 269.45 C 434.91 241.05 444.97 211.01 433.35 182.87 C 405.98 206.46 395.81 243.60 392.98 278.31 C 393.43 306.83 396.67 337.28 381.90 363.17 C 359.61 408.64 290.88 419.92 255.59 383.40 C 254.52 383.24 252.39 382.95 251.32 382.79 C 246.44 388.33 241.47 393.82 236.51 399.32 C 182.59 460.92 129.57 526.41 102.41 604.78 C 84.48 655.59 77.13 712.95 94.24 764.94 C 101.14 787.39 123.62 798.88 145.21 802.90 C 188.09 812.79 233.52 812.79 276.07 801.42 C 284.36 799.58 291.82 795.18 297.94 789.32 C 300.28 788.82 302.66 788.33 305.04 787.88 C 312.83 803.60 320.84 820.30 336.26 829.98 C 340.04 829.53 343.86 829.08 347.63 828.67 C 352.72 806.18 326.87 793.79 325.56 772.70 C 329.74 772.53 333.93 772.41 338.07 772.29 C 347.30 784.56 354.07 798.59 364.25 810.12 C 370.16 817.59 380.54 813.12 388.54 813.08 C 392.85 792.23 375.66 777.01 360.60 766.05 C 360.35 762.89 360.19 759.77 359.98 756.65 C 363.84 756.53 367.70 756.41 371.56 756.33 C 383.25 765.89 393.26 777.21 402.41 789.19 C 407.34 787.18 412.30 785.17 417.23 783.24 C 417.84 775.00 419.98 765.97 415.42 758.38 C 403.56 734.70 378.00 722.80 355.10 712.17 C 339.92 709.30 324.65 706.51 309.14 706.71 C 274.80 707.08 241.68 696.66 207.75 692.97 C 206.23 674.25 217.10 651.56 200.81 636.96 C 194.16 625.67 209.51 620.42 216.36 629.36 C 231.54 646.56 243.73 666.29 256.12 685.62 C 263.80 687.18 271.39 689.56 279.23 689.97 C 306.88 695.84 336.06 691.20 362.86 701.34 C 389.82 711.72 416.98 727.68 428.68 755.54 C 477.92 767.12 528.31 753.86 573.57 734.25 C 595.60 684.10 610.83 631.17 631.76 580.53 C 636.60 568.22 648.00 557.68 662.08 559.15 C 714.52 561.00 766.84 556.77 819.20 555.46 C 820.02 536.79 817.85 518.20 815.67 499.69 C 808.98 424.44 771.11 353.16 713.66 304.37 C 695.24 288.94 672.17 280.90 648.87 276.34 C 640.21 310.61 624.37 347.41 591.62 364.81 C 564.91 379.26 529.25 380.41 504.06 362.15 C 484.15 347.42 475.87 322.26 473.28 298.58 C 469.14 274.99 478.37 252.21 482.84 229.44 C 482.88 207.53 479.27 180.57 457.69 169.20 C 453.67 171.17 449.64 173.10 445.62 175.07 Z M 557.61 187.17 C 533.89 194.56 514.56 212.37 501.23 232.89 C 486.08 257.38 483.79 288.16 489.86 315.82 C 494.62 339.29 514.89 358.49 538.65 361.82 C 564.29 365.31 590.72 353.45 607.09 333.79 C 630.57 306.54 640.25 268.18 633.36 232.97 C 629.17 213.68 618.05 193.49 598.27 186.93 C 585.02 183.81 570.82 183.85 557.61 187.17 Z M 264.99 234.08 C 248.45 248.32 242.21 269.82 237.78 290.38 C 238.93 315.49 244.76 340.97 258.50 362.31 C 266.14 374.99 277.67 385.82 292.28 389.64 C 317.84 395.75 347.35 387.42 363.55 366.13 C 375.99 349.22 380.75 327.68 380.71 306.95 C 381.49 272.49 360.93 239.16 331.55 221.93 C 309.80 209.54 282.10 217.34 264.99 234.08 Z M 768.48 340.93 C 786.91 367.60 803.86 395.67 813.66 426.82 C 826.46 468.43 833.97 512.04 832.00 555.71 C 844.73 555.83 857.49 555.95 870.21 555.87 C 873.00 506.05 860.69 456.49 840.79 411.14 C 827.98 382.13 804.92 357.71 776.40 343.76 C 774.39 343.06 770.45 341.63 768.48 340.93 Z M 684.20 575.24 C 652.81 658.83 620.27 742.00 590.27 826.08 C 587.52 833.39 584.20 840.49 580.96 847.54 C 592.90 846.85 604.88 846.44 616.82 845.29 C 698.11 837.16 779.97 835.81 861.06 825.88 C 888.76 741.63 918.18 657.68 939.31 571.46 C 903.00 569.41 866.60 570.60 830.28 570.64 C 781.57 571.91 732.70 570.52 684.20 575.24 Z M 647.72 579.84 C 637.58 597.03 633.36 616.93 625.72 635.27 C 606.19 692.60 582.43 748.32 562.74 805.52 C 560.19 810.65 557.69 815.82 555.23 821.00 C 540.04 829.08 522.48 827.03 505.94 827.31 C 458.43 826.45 410.99 831.25 363.43 829.24 C 357.97 839.42 348.54 846.15 336.76 846.40 C 320.43 838.52 308.24 824.81 299.70 809.05 C 274.67 816.69 249.11 823.91 222.64 823.13 C 184.56 824.61 145.54 820.95 110.41 805.24 C 104.38 810.20 95.52 814.76 97.32 824.11 C 96.34 838.35 113.08 842.70 124.32 843.07 C 182.47 848.24 240.86 850.87 299.25 850.66 C 387.81 852.35 476.40 850.99 564.95 849.92 C 568.81 841.76 572.99 833.63 575.50 824.93 C 589.65 789.07 603.03 752.96 616.04 716.73 C 633.77 669.00 652.97 621.85 669.84 573.84 C 662.57 575.53 652.07 572.20 647.72 579.84 Z M 225.19 658.78 C 223.83 666.50 222.35 674.21 221.04 681.97 C 227.15 682.63 233.23 683.28 239.34 683.90 C 234.54 675.53 229.66 667.28 225.19 658.78 Z M 509.88 769.00 C 483.74 774.63 456.87 772.53 430.44 771.55 C 429.82 777.21 429.21 782.83 428.59 788.54 C 470.98 784.97 513.58 784.06 556.09 785.25 C 560.60 773.44 565.03 761.58 569.10 749.60 C 549.60 756.78 530.52 765.60 509.88 769.00 Z M 400.20 805.28 C 398.76 808.52 397.32 811.80 395.89 815.09 C 442.05 814.84 488.26 815.13 534.38 813.28 C 543.24 813.65 547.72 805.36 551.21 798.59 C 527.98 797.61 504.63 797.69 481.40 799.37 C 454.36 801.96 426.87 799.25 400.20 805.28 Z" fill="#050605" fill-rule="nonzero" node-id="38" stroke="none" target-height="712.32" target-width="882.94226" target-x="69.9917" target-y="154.552"></path><path d="M 551.37 216.84 C 558.55 209.62 569.96 201.78 579.97 208.47 C 594.29 217.54 591.58 237.85 586.74 251.64 C 582.51 266.66 567.37 278.35 570.82 295.05 C 570.57 308.31 570.33 321.56 569.05 334.77 C 554.08 335.14 545.66 322.14 538.81 310.81 C 536.31 314.50 533.80 318.24 531.34 321.97 C 527.98 321.44 524.65 320.95 521.33 320.45 C 515.09 283.69 524.98 243.80 551.37 216.84 Z" fill="#000000" fill-rule="nonzero" node-id="40" stroke="none" target-height="133.362" target-width="79.19696" target-x="515.093" target-y="201.78201"></path><path d="M 273.65 256.28 C 291.46 246.14 311.85 257.88 324.41 270.97 C 336.92 285.25 347.35 303.96 345.01 323.61 C 345.21 331.25 337.50 334.65 332.86 339.37 C 329.13 347.41 326.21 356.81 318.33 361.86 C 312.63 363.42 306.60 362.60 300.77 362.64 C 298.35 360.91 293.59 357.39 291.21 355.62 C 290.51 350.90 289.90 346.14 289.32 341.42 C 291.50 341.50 295.85 341.63 298.02 341.71 C 302.66 345.07 307.30 348.44 312.10 351.60 C 316.37 346.02 320.71 340.44 325.02 334.90 C 305.08 314.30 282.76 295.14 256.74 282.62 C 257.15 271.42 262.65 260.30 273.65 256.28 Z" fill="#000000" fill-rule="nonzero" node-id="42" stroke="none" target-height="117.27699" target-width="90.60501" target-x="256.741" target-y="246.141"></path><path d="M 404.05 695.39 C 404.22 667.28 432.61 649.84 456.42 641.88 C 479.48 639.91 500.49 650.74 518.58 663.83 C 525.64 670.03 534.75 666.70 541.77 662.35 C 543.98 662.23 548.41 661.94 550.67 661.82 C 552.48 675.61 538.16 683.94 525.89 681.76 C 505.78 676.10 491.21 656.20 469.13 656.65 C 444.68 653.98 423.01 672.08 414.89 694.16 C 411.28 694.57 407.67 694.98 404.05 695.39 Z" fill="#030303" fill-rule="nonzero" node-id="44" stroke="none" target-height="55.479004" target-width="148.423" target-x="404.054" target-y="639.908"></path><path d="M 445.62 175.07 C 449.64 173.10 453.67 171.17 457.69 169.20 C 479.27 180.57 482.88 207.53 482.84 229.44 C 478.37 252.21 469.14 274.99 473.28 298.58 C 475.87 322.26 484.15 347.41 504.06 362.15 C 529.25 380.41 564.91 379.26 591.62 364.81 C 624.37 347.41 640.21 310.61 648.87 276.34 C 672.17 280.90 695.24 288.94 713.66 304.37 C 771.11 353.16 808.98 424.44 815.67 499.69 C 815.80 501.13 816.04 503.96 816.17 505.36 C 808.04 501.54 799.83 492.84 790.27 497.23 C 765.08 506.10 742.10 523.62 730.61 548.20 C 709.97 550.66 689.20 549.88 668.61 547.42 C 677.63 539.29 688.01 532.15 694.70 521.81 C 700.24 513.07 699.38 502.32 699.87 492.47 C 675.38 492.47 650.67 492.10 626.83 486.11 C 638.53 481.88 649.93 477.00 661.34 472.08 C 660.52 467.81 659.66 463.54 658.84 459.32 C 620.51 473.80 582.31 488.98 542.30 498.30 C 443.94 520.13 344.84 540.15 244.59 551.03 C 238.36 549.72 232.16 548.32 226.01 546.84 C 234.75 546.10 243.53 545.45 252.31 544.87 C 251.53 535.43 250.83 526.00 250.05 516.56 C 258.71 514.47 267.37 512.37 276.03 510.28 C 268.52 508.39 261.05 506.55 253.50 504.95 C 274.75 500.43 295.85 495.22 316.65 488.90 C 315.83 484.76 315.01 480.65 314.19 476.55 C 292.56 481.68 270.98 487.06 249.07 491.04 C 253.25 473.43 258.83 456.24 262.65 438.59 C 260.31 437.98 255.59 436.75 253.21 436.09 C 256.45 429.03 260.35 420.66 256.70 412.99 C 250.63 407.49 243.40 403.59 236.51 399.32 C 241.48 393.82 246.44 388.33 251.32 382.79 C 252.39 382.95 254.53 383.24 255.59 383.40 C 290.88 419.92 359.61 408.64 381.90 363.17 C 396.67 337.28 393.43 306.83 392.98 278.31 C 395.81 243.60 405.98 206.46 433.35 182.87 C 444.97 211.01 434.91 241.05 429.99 269.45 C 432.98 269.24 438.93 268.87 441.89 268.67 C 453.34 239.04 455.35 205.52 445.62 175.07 Z M 575.62 446.47 C 584.12 455.29 596.38 452.09 607.13 451.81 C 607.09 446.68 606.97 441.59 606.85 436.46 C 595.36 435.60 584.07 438.22 575.62 446.47 Z" fill="#c6d5da" fill-rule="nonzero" node-id="46" stroke="none" target-height="381.82703" target-width="590.16003" target-x="226.006" target-y="169.201"></path><path d="M 557.61 187.17 C 570.82 183.85 585.02 183.81 598.27 186.93 C 618.05 193.49 629.17 213.68 633.36 232.97 C 640.25 268.18 630.57 306.54 607.10 333.79 C 590.72 353.45 564.29 365.31 538.65 361.82 C 514.89 358.49 494.62 339.29 489.86 315.82 C 483.79 288.16 486.08 257.38 501.23 232.89 C 514.56 212.37 533.89 194.56 557.61 187.17 Z M 551.37 216.84 C 524.98 243.80 515.10 283.69 521.33 320.45 C 524.66 320.95 527.98 321.44 531.35 321.97 C 533.81 318.24 536.31 314.50 538.81 310.81 C 545.67 322.14 554.08 335.14 569.05 334.78 C 570.33 321.56 570.57 308.31 570.82 295.05 C 567.37 278.35 582.51 266.66 586.74 251.64 C 591.58 237.85 594.29 217.54 579.97 208.47 C 569.96 201.78 558.55 209.62 551.37 216.84 Z" fill="#c4d2d8" fill-rule="nonzero" node-id="48" stroke="none" target-height="181.49602" target-width="156.46399" target-x="483.786" target-y="183.81001"></path><path d="M 264.99 234.08 C 282.10 217.34 309.80 209.54 331.55 221.93 C 360.93 239.16 381.49 272.49 380.71 306.95 C 380.75 327.68 375.99 349.22 363.55 366.13 C 347.35 387.42 317.84 395.75 292.28 389.64 C 277.67 385.82 266.14 374.99 258.51 362.31 C 244.76 340.97 238.93 315.49 237.78 290.38 C 242.22 269.82 248.45 248.32 264.99 234.08 Z M 273.65 256.28 C 262.65 260.30 257.15 271.42 256.74 282.62 C 282.76 295.14 305.08 314.30 325.02 334.90 C 320.71 340.44 316.37 346.02 312.10 351.60 C 307.30 348.44 302.66 345.07 298.02 341.71 C 295.85 341.63 291.50 341.50 289.32 341.42 C 289.90 346.14 290.51 350.90 291.21 355.62 C 293.59 357.39 298.35 360.92 300.77 362.64 C 306.60 362.60 312.63 363.42 318.33 361.86 C 326.21 356.81 329.13 347.41 332.86 339.37 C 337.50 334.65 345.21 331.25 345.01 323.61 C 347.35 303.96 336.92 285.25 324.41 270.97 C 311.85 257.88 291.46 246.14 273.65 256.28 Z" fill="#c4d1d8" fill-rule="nonzero" node-id="50" stroke="none" target-height="186.21501" target-width="143.70299" target-x="237.783" target-y="209.53798"></path><path d="M 768.48 340.93 C 770.45 341.63 774.39 343.06 776.40 343.76 C 804.92 357.71 827.99 382.13 840.79 411.14 C 860.69 456.48 873.00 506.05 870.21 555.87 C 857.49 555.95 844.73 555.83 832.01 555.71 C 833.98 512.04 826.47 468.43 813.66 426.82 C 803.86 395.67 786.91 367.60 768.48 340.93 Z" fill="#bbd4ce" fill-rule="nonzero" node-id="52" stroke="none" target-height="215.02103" target-width="104.51599" target-x="768.484" target-y="340.931"></path><path d="M 236.51 399.32 C 243.40 403.59 250.63 407.49 256.70 412.99 C 260.35 420.66 256.45 429.03 253.21 436.09 C 243.57 453.57 239.22 473.14 235.61 492.59 C 224.32 494.32 213.04 496.49 201.92 499.20 C 203.52 501.66 206.64 506.59 208.24 509.09 C 223.38 510.36 238.40 505.93 253.50 504.95 C 261.05 506.55 268.52 508.39 276.03 510.28 C 267.37 512.37 258.71 514.47 250.05 516.56 C 250.83 526.00 251.53 535.43 252.31 544.87 C 243.53 545.45 234.75 546.10 226.01 546.84 C 232.16 548.32 238.36 549.72 244.59 551.03 C 230.72 552.14 216.44 552.01 203.11 556.36 C 201.92 558.91 199.58 564.00 198.39 566.54 C 211.97 567.32 225.55 566.95 239.14 566.50 C 248.33 606.88 280.46 642.58 322.68 648.44 C 332.20 657.43 336.06 670.11 338.52 682.59 C 340.12 684.02 343.32 686.89 344.92 688.29 C 323.01 687.55 301.10 688.66 279.23 689.97 C 271.39 689.56 263.80 687.18 256.12 685.62 C 243.73 666.29 231.54 646.56 216.36 629.36 C 209.51 620.42 194.16 625.67 200.81 636.95 C 217.10 651.56 206.23 674.25 207.75 692.97 C 241.68 696.66 274.80 707.08 309.14 706.71 C 324.65 706.51 339.92 709.30 355.10 712.17 C 378.00 722.80 403.56 734.70 415.42 758.38 C 419.98 765.97 417.84 774.99 417.23 783.24 C 412.30 785.17 407.34 787.18 402.41 789.19 C 393.26 777.21 383.25 765.88 371.56 756.32 C 367.70 756.41 363.84 756.53 359.98 756.65 C 360.19 759.77 360.35 762.89 360.60 766.05 C 375.66 777.00 392.85 792.23 388.54 813.07 C 380.54 813.12 370.16 817.59 364.25 810.12 C 354.07 798.59 347.30 784.56 338.07 772.29 C 333.93 772.41 329.74 772.53 325.56 772.70 C 326.87 793.79 352.72 806.18 347.63 828.67 C 343.86 829.08 340.04 829.53 336.27 829.98 C 320.84 820.30 312.83 803.60 305.04 787.88 C 302.66 788.33 300.28 788.82 297.94 789.32 C 291.82 795.18 284.36 799.57 276.07 801.42 C 233.52 812.79 188.09 812.79 145.21 802.90 C 123.62 798.88 101.14 787.39 94.24 764.94 C 77.13 712.95 84.48 655.58 102.41 604.78 C 129.57 526.41 182.59 460.92 236.51 399.32 Z" fill="#cedce1" fill-rule="nonzero" node-id="54" stroke="none" target-height="430.65802" target-width="342.8439" target-x="77.1321" target-y="399.323"></path><path d="M 253.21 436.09 C 255.59 436.75 260.31 437.98 262.65 438.59 C 258.83 456.24 253.25 473.43 249.07 491.04 C 270.98 487.06 292.56 481.68 314.19 476.55 C 315.01 480.65 315.83 484.76 316.65 488.90 C 295.85 495.22 274.76 500.43 253.50 504.95 C 238.40 505.93 223.38 510.36 208.24 509.09 C 206.64 506.59 203.52 501.66 201.92 499.20 C 213.04 496.49 224.32 494.32 235.61 492.59 C 239.22 473.14 243.57 453.57 253.21 436.09 Z" fill="#080808" fill-rule="nonzero" node-id="56" stroke="none" target-height="74.27203" target-width="114.73302" target-x="201.91899" target-y="436.08997"></path><path d="M 542.30 498.30 C 582.31 488.98 620.51 473.80 658.84 459.31 C 659.66 463.54 660.52 467.81 661.34 472.08 C 649.93 477.00 638.52 481.88 626.83 486.11 C 621.46 487.96 616.12 489.72 610.75 491.49 C 613.78 511.43 615.22 532.32 606.93 551.27 C 591.09 597.15 533.68 622.59 489.12 603.59 C 459.57 591.08 442.30 562.07 429.21 534.33 C 426.54 535.72 423.91 537.16 421.29 538.59 C 419.93 567.98 413.86 598.83 393.10 621.03 C 375.86 641.35 348.45 648.89 322.68 648.44 C 280.46 642.58 248.33 606.88 239.14 566.50 C 225.55 566.95 211.97 567.32 198.39 566.54 C 199.58 564.00 201.92 558.91 203.11 556.36 C 216.44 552.01 230.72 552.14 244.59 551.03 C 344.84 540.15 443.94 520.13 542.30 498.30 Z M 567.12 506.38 C 566.47 516.72 566.22 527.92 557.73 535.27 C 543.61 537.86 531.55 530.39 526.66 517.05 C 519.40 517.75 512.18 518.53 504.92 519.27 L 502.70 520.91 C 491.09 522.88 479.72 525.91 468.11 527.97 L 465.93 529.61 C 458.96 530.55 452.02 531.54 445.09 532.48 C 452.52 563.26 478.65 589.52 509.92 595.80 C 541.07 600.80 572.38 583.94 589.57 558.37 C 590.56 556.24 592.57 552.01 593.59 549.92 C 600.45 533.05 600.08 514.59 597.98 496.86 C 587.56 499.61 577.26 502.69 567.12 506.38 Z M 334.17 552.10 C 334.54 558.33 334.91 564.57 335.32 570.85 C 331.71 578.97 326.42 586.11 319.97 592.23 C 315.75 592.10 311.48 592.02 307.25 591.94 C 296.30 583.69 288.25 572.53 283.58 559.64 C 280.99 559.93 278.37 560.22 275.78 560.51 C 268.11 562.15 260.39 563.34 252.64 564.40 C 254.93 571.59 257.31 578.73 259.78 585.87 C 268.52 600.76 278.41 616.03 294.12 624.36 C 311.03 635.68 332.00 635.15 351.32 632.77 C 371.43 625.38 386.86 609.71 396.91 591.16 C 402.99 575.20 406.72 558.46 406.48 541.34 C 397.37 542.45 388.21 543.64 379.19 545.57 C 364.13 547.21 349.19 549.92 334.17 552.10 Z" fill="#030302" fill-rule="nonzero" node-id="58" stroke="none" target-height="189.58002" target-width="462.953" target-x="198.388" target-y="459.315"></path><path d="M 610.75 491.49 C 616.12 489.72 621.46 487.96 626.83 486.11 C 650.67 492.10 675.38 492.47 699.87 492.47 C 699.38 502.32 700.24 513.07 694.70 521.81 C 688.01 532.15 677.63 539.29 668.60 547.42 C 689.20 549.88 709.97 550.66 730.61 548.20 C 742.10 523.62 765.08 506.10 790.27 497.23 C 799.83 492.84 808.04 501.54 816.16 505.36 C 816.04 503.96 815.79 501.13 815.67 499.69 C 817.85 518.20 820.02 536.79 819.20 555.46 C 766.84 556.77 714.52 561.00 662.08 559.15 C 648.00 557.67 636.60 568.22 631.75 580.53 C 610.83 631.17 595.60 684.10 573.57 734.25 C 528.31 753.86 477.92 767.12 428.67 755.54 C 416.98 727.68 389.81 711.72 362.86 701.34 C 336.06 691.20 306.88 695.84 279.23 689.97 C 301.10 688.66 323.01 687.55 344.92 688.29 C 343.32 686.89 340.12 684.02 338.52 682.59 C 336.06 670.11 332.20 657.43 322.68 648.44 C 348.45 648.89 375.86 641.35 393.10 621.03 C 413.86 598.83 419.93 567.98 421.29 538.59 C 423.91 537.16 426.54 535.72 429.21 534.33 C 442.30 562.07 459.57 591.08 489.12 603.59 C 533.68 622.59 591.09 597.15 606.93 551.27 C 615.22 532.32 613.78 511.43 610.75 491.49 Z M 404.05 695.39 C 407.67 694.98 411.28 694.57 414.89 694.16 C 423.01 672.08 444.68 653.98 469.13 656.65 C 491.21 656.20 505.78 676.10 525.89 681.76 C 538.15 683.94 552.48 675.61 550.67 661.82 C 548.41 661.94 543.98 662.23 541.77 662.36 C 534.75 666.70 525.64 670.03 518.58 663.83 C 500.49 650.74 479.48 639.91 456.41 641.88 C 432.61 649.84 404.22 667.28 404.05 695.39 Z" fill="#cad8de" fill-rule="nonzero" node-id="60" stroke="none" target-height="281.00504" target-width="540.79596" target-x="279.226" target-y="486.111"></path><path d="M 684.20 575.24 C 732.70 570.52 781.58 571.91 830.28 570.64 C 866.60 570.60 903.00 569.41 939.31 571.46 C 918.18 657.68 888.76 741.63 861.06 825.88 C 779.98 835.81 698.11 837.16 616.82 845.29 C 604.88 846.44 592.90 846.85 580.96 847.54 C 584.20 840.49 587.52 833.39 590.27 826.08 C 620.27 742.00 652.81 658.83 684.20 575.24 Z M 721.58 742.13 C 724.87 749.68 726.88 758.66 733.85 763.87 C 759.01 782.42 800.45 771.01 812.02 741.80 C 820.35 723.46 808.49 698.88 788.43 694.98 C 758.47 690.18 727.04 712.13 721.58 742.13 Z" fill="#d0e0d3" fill-rule="nonzero" node-id="62" stroke="none" target-height="278.133" target-width="358.35602" target-x="580.957" target-y="569.411"></path><path d="M 647.72 579.83 C 652.07 572.20 662.57 575.52 669.84 573.84 C 652.97 621.85 633.77 669.00 616.04 716.73 C 603.03 752.96 589.65 789.07 575.50 824.93 C 571.85 818.08 567.25 811.80 562.74 805.52 C 582.43 748.32 606.19 692.60 625.72 635.27 C 633.36 616.93 637.58 597.03 647.72 579.83 Z" fill="#b1c1b3" fill-rule="nonzero" node-id="64" stroke="none" target-height="252.73297" target-width="107.10004" target-x="562.735" target-y="572.201"></path><path d="M 225.19 658.78 C 229.66 667.28 234.54 675.53 239.34 683.90 C 233.23 683.28 227.16 682.63 221.04 681.97 C 222.35 674.21 223.83 666.50 225.19 658.78 Z" fill="#ced5db" fill-rule="nonzero" node-id="66" stroke="none" target-height="25.114014" target-width="18.301987" target-x="221.04102" target-y="658.784"></path><path d="M 721.58 742.13 C 727.04 712.13 758.47 690.18 788.43 694.98 C 808.49 698.88 820.35 723.46 812.02 741.80 C 800.45 771.01 759.00 782.42 733.85 763.87 C 726.87 758.66 724.86 749.68 721.58 742.13 Z M 738.53 732.73 C 734.71 740.65 738.90 748.90 742.47 756.00 C 758.80 761.90 778.41 761.21 791.34 748.28 C 804.31 737.82 803.57 712.50 785.80 707.62 C 766.92 705.28 748.01 716.73 738.53 732.73 Z" fill="#090909" fill-rule="nonzero" node-id="68" stroke="none" target-height="92.24597" target-width="98.770935" target-x="721.58" target-y="690.176"></path><path d="M 738.53 732.73 C 748.01 716.73 766.92 705.28 785.80 707.62 C 803.57 712.50 804.31 737.82 791.34 748.28 C 778.41 761.21 758.80 761.90 742.47 756.00 C 738.90 748.90 734.71 740.65 738.53 732.73 Z" fill="#d4dfe4" fill-rule="nonzero" node-id="70" stroke="none" target-height="56.627014" target-width="69.594055" target-x="734.712" target-y="705.277"></path><path d="M 509.88 769.00 C 530.52 765.60 549.60 756.77 569.10 749.59 C 565.03 761.58 560.60 773.43 556.09 785.25 C 513.58 784.06 470.98 784.97 428.59 788.53 C 429.21 782.83 429.82 777.21 430.44 771.55 C 456.86 772.53 483.74 774.63 509.88 769.00 Z" fill="#bbb0cf" fill-rule="nonzero" node-id="72" stroke="none" target-height="38.942017" target-width="140.50296" target-x="428.592" target-y="749.59296"></path><path d="M 400.20 805.28 C 426.87 799.25 454.36 801.95 481.40 799.37 C 504.63 797.69 527.98 797.61 551.21 798.59 C 547.72 805.36 543.24 813.65 534.38 813.28 C 488.26 815.13 442.05 814.84 395.89 815.09 C 397.32 811.80 398.76 808.52 400.20 805.28 Z" fill="#aec0b4" fill-rule="nonzero" node-id="74" stroke="none" target-height="17.520996" target-width="155.31601" target-x="395.889" target-y="797.605"></path><path d="M 97.32 824.11 C 95.52 814.76 104.38 810.20 110.41 805.24 C 145.54 820.95 184.56 824.61 222.64 823.13 C 249.11 823.91 274.67 816.68 299.70 809.05 C 308.24 824.81 320.43 838.52 336.76 846.39 C 324.28 848.12 311.81 849.68 299.25 850.66 C 240.86 850.87 182.47 848.24 124.32 843.07 C 113.08 842.70 96.34 838.35 97.32 824.11 Z" fill="#c2ced4" fill-rule="nonzero" node-id="76" stroke="none" target-height="45.630005" target-width="241.2425" target-x="95.5155" target-y="805.237"></path><path d="M 562.74 805.52 C 567.25 811.80 571.84 818.08 575.50 824.93 C 572.99 833.63 568.81 841.76 564.95 849.92 C 476.40 850.99 387.80 852.34 299.25 850.66 C 311.81 849.68 324.28 848.12 336.76 846.39 C 348.53 846.15 357.97 839.42 363.43 829.24 C 410.99 831.25 458.43 826.45 505.94 827.31 C 522.48 827.03 540.04 829.08 555.23 820.99 C 557.69 815.82 560.19 810.65 562.74 805.52 Z" fill="#b6c7c0" fill-rule="nonzero" node-id="78" stroke="none" target-height="46.82007" target-width="276.24496" target-x="299.251" target-y="805.5239"></path></svg>